<svg width="16" height="15" viewBox="0 0 16 15" fill="none" xmlns="http://www.w3.org/2000/svg">
<path d="M10.5 4.99999L13.8333 1.66666M13.8333 1.66666V4.16666M13.8333 1.66666H11.3333" stroke="#CBCBFF" stroke-width="1.5" stroke-linecap="round" stroke-linejoin="round"/>
<path d="M10.9632 9.62333L10.584 10.0233C10.584 10.0233 9.68155 10.9725 7.21905 8.38C4.75655 5.78749 5.65905 4.83833 5.65905 4.83833L5.89821 4.58583C6.48655 3.96583 6.54238 2.97083 6.02821 2.24416L4.97821 0.758328C4.34155 -0.141672 3.11238 -0.260005 2.38321 0.507495L1.07571 1.88333C0.71488 2.26416 0.473213 2.75666 0.50238 3.30416C0.57738 4.70416 1.17571 7.715 4.51238 11.2292C8.05155 14.9542 11.3724 15.1025 12.7299 14.9683C13.1599 14.9267 13.5332 14.6942 13.834 14.3775L15.0174 13.1308C15.8174 12.2892 15.5924 10.8475 14.569 10.2592L12.9774 9.3425C12.3057 8.95666 11.4882 9.06999 10.9632 9.62249" fill="#CBCBFF"/>
</svg>
