<svg width="26" height="23" viewBox="0 0 26 23" fill="none" xmlns="http://www.w3.org/2000/svg">
<path d="M19.1737 0.25C20.85 0.25 22.4625 0.9125 23.6487 2.10125C24.8362 3.2875 25.5 4.8875 25.5 6.5625V16.4375C25.5 19.925 22.6625 22.75 19.1737 22.75H6.825C3.33625 22.75 0.5 19.925 0.5 16.4375V6.5625C0.5 3.075 3.32375 0.25 6.825 0.25H19.1737ZM20.5875 6.75C20.325 6.73625 20.075 6.825 19.8862 7L14.25 11.5C13.525 12.1012 12.4862 12.1012 11.75 11.5L6.125 7C5.73625 6.7125 5.19875 6.75 4.875 7.0875C4.5375 7.425 4.5 7.9625 4.78625 8.3375L4.95 8.5L10.6375 12.9375C11.3375 13.4875 12.1863 13.7875 13.075 13.7875C13.9613 13.7875 14.825 13.4875 15.5238 12.9375L21.1625 8.425L21.2625 8.325C21.5613 7.9625 21.5613 7.4375 21.2488 7.075C21.075 6.88875 20.8363 6.775 20.5875 6.75Z" fill="#F3F8FF"/>
</svg>
